<?xml version="1.0" encoding="utf-8"?>
<!-- Generator: Adobe Illustrator 22.0.1, SVG Export Plug-In . SVG Version: 6.00 Build 0)  -->
<svg version="1.1" id="Layer_1" xmlns="http://www.w3.org/2000/svg" xmlns:xlink="http://www.w3.org/1999/xlink" x="0px" y="0px"
	 viewBox="0 0 29.5 29.5" style="enable-background:new 0 0 29.5 29.5;" xml:space="preserve">
<style type="text/css">
	.st0{fill:#857F7A;}
	.st1{fill:#FFFFFF;}
</style>
<circle class="st0" cx="14.8" cy="14.8" r="14.7"/>
<g>
	<path class="st1" d="M6,22.7V6.8c0-1.1,0.9-1.9,1.9-1.9h5.8c3.1,0,5.6,0.9,7.5,2.7c1.9,1.8,2.9,4.2,2.9,7.1c0,2-0.4,3.7-1.3,5.2
		s-2.1,2.7-3.7,3.5c-1.6,0.8-3.4,1.2-5.4,1.2H7.9C6.8,24.6,6,23.7,6,22.7z M10.1,19c0,1.1,0.9,1.9,1.9,1.9h1.6
		c1.3,0,2.4-0.3,3.3-0.9c1-0.6,1.7-1.3,2.1-2.2c0.5-0.9,0.7-2,0.7-3.1c0-1.8-0.5-3.3-1.6-4.4c-1.1-1.1-2.6-1.7-4.5-1.7h-1.7
		c-1.1,0-1.9,0.9-1.9,1.9V19z"/>
</g>
<title>Asset 6</title>
</svg>
